<?xml version="1.0" encoding="utf-8"?>
<!-- Generator: Adobe Illustrator 23.1.1, SVG Export Plug-In . SVG Version: 6.00 Build 0)  -->
<svg version="1.1" xmlns="http://www.w3.org/2000/svg" xmlns:xlink="http://www.w3.org/1999/xlink" x="0px" y="0px"
	 viewBox="0 0 161.57 161.57" style="enable-background:new 0 0 161.57 161.57;" xml:space="preserve">
<style type="text/css">
	.st0{fill:#231F20;}
	.st1{fill:#0F9D58;}
	.st2{fill:#333333;}
	.st3{fill:#F4B400;}
	.st4{fill:#DB4437;}
	.st5{fill:#4285F4;}
	.st6{fill:url(#SVGID_1_);}
	.st7{fill:url(#SVGID_2_);}
	.st8{fill:url(#SVGID_3_);}
	.st9{fill:url(#SVGID_4_);}
</style>
<g id="Layer_2">
	<path class="st0" d="M136.06,161.57H25.51C11.42,161.57,0,150.15,0,136.06V25.51C0,11.42,11.42,0,25.51,0h110.55
		c14.09,0,25.51,11.42,25.51,25.51v110.55C161.57,150.15,150.15,161.57,136.06,161.57z"/>
</g>
<g id="Layer_1">
	<path class="st1" d="M88.68,142.45H72.84c-3.13,0-5.67-2.54-5.67-5.67v-8.73c0-3.13,2.54-5.67,5.67-5.67h15.84
		c3.13,0,5.67,2.54,5.67,5.67v8.73C94.35,139.91,91.81,142.45,88.68,142.45z"/>
	<g>
		<path class="st2" d="M132.2,66h-23.48l-2.67,17.97h26.15c4.96,0,8.98-4.02,8.98-8.98C141.18,70.02,137.16,66,132.2,66z"/>
		<path class="st2" d="M52.86,66H29.38c-4.96,0-8.98,4.02-8.98,8.98c0,4.96,4.02,8.98,8.98,8.98h26.15L52.86,66z"/>
	</g>
	<path class="st3" d="M80.79,20.36c8.68,0,15.72,5.54,14.56,15.03c-1.05,8.62-5.88,16.4-14.56,16.4S67.28,44,66.22,35.39
		C65.07,25.9,72.11,20.36,80.79,20.36z"/>
	<g>
		<path class="st4" d="M84.09,82.98c-6.71,5.29-13.43,10.09-19.52,14.15l2.03,13.7c0.34,2.32,2.34,4.04,4.68,4.04h19.01
			c2.35,0,4.34-1.72,4.68-4.04l6.31-42.51C96.1,73.08,90.31,78.08,84.09,82.98z"/>
		<path class="st5" d="M77.56,80.18c9.46-7.62,17.2-13.97,23.52-19.19c-3.82-1.36-7.82-2.35-11.96-2.93
			c-2.59,0.98-5.4,1.53-8.34,1.53s-5.74-0.55-8.34-1.53c-3.18,0.44-6.29,1.13-9.29,2.04c-2.25,0.68-3.65,2.91-3.31,5.23l3.85,25.95
			C67.73,88.08,72.33,84.4,77.56,80.18z"/>
	</g>
	<g>
		<linearGradient id="SVGID_1_" gradientUnits="userSpaceOnUse" x1="124.902" y1="73.7409" x2="124.902" y2="66.002">
			<stop  offset="0" style="stop-color:#FFFFFF"/>
			<stop  offset="0.2196" style="stop-color:#CBCACA"/>
			<stop  offset="0.6012" style="stop-color:#757273"/>
			<stop  offset="0.8703" style="stop-color:#3F3B3C"/>
			<stop  offset="1" style="stop-color:#2A2627"/>
			<stop  offset="1" style="stop-color:#231F20"/>
		</linearGradient>
		<path class="st6" d="M108.72,66h23.48c4.54,0,8.28,3.37,8.89,7.74"/>
		<linearGradient id="SVGID_2_" gradientUnits="userSpaceOnUse" x1="36.6728" y1="73.7409" x2="36.6728" y2="66.002">
			<stop  offset="0" style="stop-color:#FFFFFF"/>
			<stop  offset="0.2196" style="stop-color:#CBCACA"/>
			<stop  offset="0.6012" style="stop-color:#757273"/>
			<stop  offset="0.8703" style="stop-color:#3F3B3C"/>
			<stop  offset="1" style="stop-color:#2A2627"/>
			<stop  offset="1" style="stop-color:#231F20"/>
		</linearGradient>
		<path class="st7" d="M20.49,73.74C21.1,69.37,24.84,66,29.38,66h23.48"/>
		<linearGradient id="SVGID_3_" gradientUnits="userSpaceOnUse" x1="124.328" y1="73.7409" x2="124.328" y2="66.002">
			<stop  offset="0" style="stop-color:#FFFFFF"/>
			<stop  offset="0.2196" style="stop-color:#CBCACA"/>
			<stop  offset="0.6012" style="stop-color:#757273"/>
			<stop  offset="0.8703" style="stop-color:#3F3B3C"/>
			<stop  offset="1" style="stop-color:#2A2627"/>
			<stop  offset="1" style="stop-color:#231F20"/>
		</linearGradient>
		<path class="st8" d="M132.2,66h-23.48l-1.15,7.74h33.52C140.48,69.37,136.74,66,132.2,66z"/>
		<linearGradient id="SVGID_4_" gradientUnits="userSpaceOnUse" x1="37.2468" y1="73.7409" x2="37.2468" y2="66.002">
			<stop  offset="0" style="stop-color:#FFFFFF"/>
			<stop  offset="0.2196" style="stop-color:#CBCACA"/>
			<stop  offset="0.6012" style="stop-color:#757273"/>
			<stop  offset="0.8703" style="stop-color:#3F3B3C"/>
			<stop  offset="1" style="stop-color:#2A2627"/>
			<stop  offset="1" style="stop-color:#231F20"/>
		</linearGradient>
		<path class="st9" d="M29.38,66c-4.54,0-8.28,3.37-8.89,7.74h33.52L52.86,66H29.38z"/>
	</g>
</g>
<g id="Layer_3">
</g>
</svg>
